<svg width="17" height="10" viewBox="0 0 17 10" fill="none" xmlns="http://www.w3.org/2000/svg">
<path d="M5.448 9V7.656H2.244C2.284 7.496 2.376 7.308 2.52 7.092C2.664 6.868 2.864 6.64 3.12 6.408L4.08 5.52C4.32 5.304 4.524 5.096 4.692 4.896C4.86 4.688 4.996 4.476 5.1 4.26C5.204 4.044 5.28 3.82 5.328 3.588C5.376 3.348 5.4 3.092 5.4 2.82C5.4 2.076 5.192 1.504 4.776 1.104C4.36 0.704 3.72 0.504 2.856 0.504C1.944 0.504 1.276 0.716 0.852 1.14C0.428 1.564 0.216 2.172 0.216 2.964V3.288H1.872C1.872 3.064 1.88 2.852 1.896 2.652C1.92 2.452 1.964 2.276 2.028 2.124C2.1 1.972 2.196 1.852 2.316 1.764C2.444 1.676 2.616 1.632 2.832 1.632C3.392 1.632 3.672 1.984 3.672 2.688C3.672 2.904 3.66 3.096 3.636 3.264C3.62 3.432 3.58 3.588 3.516 3.732C3.452 3.876 3.36 4.02 3.24 4.164C3.128 4.308 2.976 4.464 2.784 4.632L2.088 5.28C1.776 5.568 1.5 5.856 1.26 6.144C1.028 6.424 0.832 6.712 0.672 7.008C0.52 7.304 0.404 7.616 0.324 7.944C0.252 8.272 0.216 8.624 0.216 9H5.448ZM11.2616 0.672H6.02963V2.16H9.60563C9.18963 2.728 8.82963 3.308 8.52563 3.9C8.22163 4.492 7.96163 5.08 7.74563 5.664C7.53763 6.248 7.36963 6.824 7.24163 7.392C7.11363 7.952 7.01763 8.488 6.95363 9H8.76562C8.83763 8.4 8.94163 7.792 9.07763 7.176C9.21363 6.552 9.38563 5.94 9.59363 5.34C9.80163 4.74 10.0416 4.156 10.3136 3.588C10.5936 3.02 10.9096 2.488 11.2616 1.992V0.672ZM16.6313 2.016V0.672H12.2033L11.8913 5.292H13.4393C13.4713 5.052 13.5513 4.864 13.6793 4.728C13.8153 4.584 14.0073 4.512 14.2553 4.512C14.4473 4.512 14.6073 4.54 14.7353 4.596C14.8633 4.652 14.9633 4.748 15.0353 4.884C15.1153 5.02 15.1713 5.204 15.2033 5.436C15.2353 5.668 15.2513 5.96 15.2513 6.312C15.2513 6.864 15.1713 7.28 15.0113 7.56C14.8593 7.832 14.6033 7.968 14.2433 7.968C14.0593 7.968 13.9113 7.924 13.7993 7.836C13.6873 7.74 13.5993 7.624 13.5353 7.488C13.4793 7.344 13.4433 7.192 13.4273 7.032C13.4113 6.872 13.4033 6.72 13.4033 6.576H11.7473V6.804C11.7473 7.044 11.7753 7.304 11.8313 7.584C11.8953 7.856 12.0153 8.112 12.1913 8.352C12.3673 8.584 12.6193 8.772 12.9473 8.916C13.2833 9.06 13.7193 9.132 14.2553 9.132C14.7993 9.132 15.2473 9.064 15.5993 8.928C15.9513 8.784 16.2273 8.576 16.4273 8.304C16.6353 8.024 16.7793 7.692 16.8593 7.308C16.9393 6.924 16.9793 6.496 16.9793 6.024C16.9793 5.688 16.9473 5.36 16.8833 5.04C16.8193 4.712 16.7073 4.42 16.5473 4.164C16.3953 3.908 16.1833 3.704 15.9113 3.552C15.6473 3.392 15.3113 3.312 14.9033 3.312C14.5353 3.312 14.2233 3.364 13.9673 3.468C13.7113 3.564 13.5033 3.724 13.3433 3.948H13.3193L13.4993 2.016H16.6313Z" fill="white"/>
</svg>
